HIERARCHY
ROOT Hips
{
	OFFSET 0.00000 0.00000 0.00000
	CHANNELS 6 Xposition Yposition Zposition Yrotation Zrotation Xrotation 
	JOINT Lumbar
	{
		OFFSET 0 0 0
		CHANNELS 3 Zrotation Xrotation Yrotation
		JOINT Neck
		{
			OFFSET 0.00 0.2701 0.00
			CHANNELS 3 Zrotation Xrotation Yrotation
			End Site
			{
				OFFSET 0.00 0.1379 0.00
			}
		}
		JOINT RightShoulder
		{
			OFFSET 0.0119 0.2289 0.1181
			CHANNELS 3 Zrotation Xrotation Yrotation
			JOINT RightElbow
			{
				OFFSET 0.00 -0.1475 0.00
				CHANNELS 2 Zrotation Yrotation
				JOINT RightWrist
				{
					OFFSET 0.00 -0.1605 0.00
					CHANNELS 2 Zrotation Xrotation
					End Site
					{
						OFFSET 0.0040 -0.1068 0.0006
					}
				}
			}
		}
		JOINT LeftShoulder
		{
			OFFSET 0.0119 0.2289 -0.1181
			CHANNELS 3 Zrotation Xrotation Yrotation
			JOINT LeftElbow
			{
				OFFSET 0.00 -0.1475 0.00
				CHANNELS 2 Zrotation Yrotation
				JOINT LeftWrist
				{
					OFFSET 0.00 -0.1605 0.00
					CHANNELS 2 Zrotation Xrotation
					End Site
					{
						OFFSET 0.0040 -0.1068 -0.0006
					}
				}
			}
		}
	}
	JOINT RightHip
	{
		OFFSET 0.0316 -0.0424 0.0458
		CHANNELS 3 Zrotation Xrotation Yrotation
		JOINT RightKnee
		{
			OFFSET 0.00 -0.2438 0.00
			CHANNELS 1 Zrotation
			JOINT RightAnkle
			{
				OFFSET 0.00 -0.2449 0.00
				CHANNELS 3 Zrotation Xrotation Yrotation
				End Site
				{
					OFFSET 0.1237 -0.0542 0.0051
				}
			}
		}
	}
	JOINT LeftHip
	{
		OFFSET 0.0316 -0.0424 -0.0458
		CHANNELS 3 Zrotation Xrotation Yrotation
		JOINT LeftKnee
		{
			OFFSET 0.00 -0.2438 0.00
			CHANNELS 1 Zrotation
			JOINT LeftAnkle
			{
				OFFSET 0.00 -0.2449 0.00
				CHANNELS 3 Zrotation Xrotation Yrotation
				End Site
				{
					OFFSET 0.1237 -0.0542 -0.0051
				}
			}
		}
	}
}
MOTION
Frames: 20
Frame Time: 0.02
-0.31226 0.57704 -0.22685 239.62247 0 -7.67764 -2.41125 3.82949 -2.15295 -28.83935 2.50632 -0.1925 21.58347 -36.17774 -17.787 89.87003 90.82778 47.78831 -2.59561 58.77264 15.29206 -38.91239 111.5069 -34.20778 -39.42717 -2.457 14.33268 3.33903 -12.08366 -26.31054 1.56119 -4.82822 -8.6812 -0.06232 2.23698 8.1413 -6.96261 7.04785 5.5809 6.51825
-0.31275 0.577 -0.22572 239.6782 0 -7.62308 -2.2546 3.69159 -2.48582 -28.86328 2.74971 -0.33017 21.85859 -35.77999 -16.1266 87.29533 84.31472 52.09285 -3.66298 58.49176 15.26765 -38.71954 111.09191 -34.34968 -39.12054 -2.46239 14.02143 4.0883 -11.74981 -25.38884 1.96346 -4.71795 -7.91473 -0.13898 2.22827 8.45744 -7.09301 7.3055 5.45545 6.06897
-0.31366 0.57701 -0.22432 239.77894 0 -7.58039 -2.0231 3.54183 -2.88593 -28.77998 3.02229 -0.47096 22.54871 -35.4838 -13.17308 83.73295 72.06454 52.90803 -4.42698 58.05375 15.2401 -38.54628 110.52227 -34.62144 -38.7074 -2.453 13.43658 4.96723 -11.04428 -23.95554 2.16325 -4.5296 -7.20486 -0.22697 2.26374 8.75619 -7.28624 7.60333 5.30515 5.57665
-0.31438 0.57698 -0.22303 239.84606 0 -7.53322 -1.82076 3.40452 -3.2442 -28.75181 3.27318 -0.60658 23.04511 -35.14685 -10.82692 80.80676 62.75672 54.83853 -5.23833 57.69815 15.21783 -38.36785 110.02577 -34.82103 -38.35669 -2.45159 12.97558 5.78098 -10.48836 -22.7656 2.43964 -4.38472 -6.48703 -0.30351 2.28292 9.09949 -7.46947 7.89411 5.15005 5.08701
-0.31509 0.57701 -0.22182 239.96592 0 -7.48138 -1.63706 3.23419 -3.65173 -28.70002 3.56551 -0.75453 23.58007 -34.79158 -8.39202 77.09539 52.14532 58.73368 -6.43706 57.29616 15.17308 -38.16974 109.51061 -35.0746 -37.94485 -2.44544 12.51296 6.62525 -10.00643 -21.52095 2.78515 -4.20685 -5.67738 -0.40764 2.28649 9.3029 -7.57419 8.14066 5.05755 4.65935
-0.31593 0.57694 -0.22037 239.98834 0 -7.44214 -1.39822 3.13206 -3.97098 -28.66931 3.77438 -0.87991 24.12815 -34.49075 -5.84406 74.77341 42.87124 57.82551 -6.77405 56.95258 15.17735 -38.0197 108.99978 -35.24782 -37.63434 -2.44541 11.99085 7.43286 -9.28747 -20.27442 2.93899 -4.07831 -5.07847 -0.45621 2.33226 9.78098 -7.858 8.48604 4.83468 4.10126
-0.31704 0.57659 -0.21831 239.72341 0 -7.438 -1.01627 3.20872 -4.0427 -28.74018 3.76894 -0.929 24.59638 -34.39362 -3.20561 76.64813 38.35848 43.09877 -4.56323 56.81995 15.31 -37.98687 108.54219 -35.15915 -37.6477 -2.46601 11.36297 8.13608 -7.97536 -19.12018 2.58899 -4.11201 -5.05276 -0.35209 2.49267 11.10717 -8.61691 9.1149 4.20892 3.12627
-0.31826 0.57615 -0.21601 239.36088 0 -7.44576 -0.58335 3.35686 -4.021 -28.83274 3.67425 -0.95765 25.06518 -34.33535 -0.51023 79.93577 35.43329 23.86816 -1.53357 56.74987 15.49367 -38.00444 108.09416 -34.98674 -37.76405 -2.49318 10.6868 8.79247 -6.44447 -17.98798 2.05676 -4.19677 -5.23838 -0.18994 2.69286 12.69377 -9.55639 9.83781 3.46125 2.03344
-0.31943 0.57576 -0.21382 239.04766 0 -7.44601 -0.17978 3.48098 -4.0334 -28.90356 3.60382 -1.00518 25.53857 -34.20603 2.0909 82.49705 31.9789 7.65742 0.96173 56.64357 15.66075 -38.006 107.64109 -34.8583 -37.8217 -2.51717 10.03853 9.45125 -5.03288 -16.86449 1.62282 -4.25357 -5.32682 -0.05328 2.86847 14.10373 -10.41351 10.5042 2.80269 1.0405
-0.32064 0.57535 -0.21163 238.71357 0 -7.45517 0.25292 3.56972 -4.08262 -29.01987 3.60073 -1.01402 25.99971 -34.29813 5.00489 85.37129 27.50933 -12.62306 4.13787 56.56347 15.80255 -37.97786 107.18741 -34.70967 -37.92498 -2.54147 9.35498 10.19399 -3.52132 -15.64312 1.11635 -4.32765 -5.42313 0.07511 3.0712 15.75797 -11.2667 11.23042 2.00438 -0.14521
-0.32178 0.57495 -0.20938 238.40104 0 -7.44888 0.63558 3.74829 -4.0331 -29.0492 3.43899 -1.09639 26.4893 -33.94633 7.29011 87.95233 25.61278 -25.6498 6.10427 56.4472 16.00568 -38.02486 106.73683 -34.58117 -37.96008 -2.56688 8.7377 10.74949 -2.17467 -14.63863 0.72062 -4.379 -5.55082 0.23985 3.22866 16.96712 -12.17943 11.85354 1.46418 -0.96235
-0.32274 0.57463 -0.20701 238.1558 0 -7.39333 0.87129 4.1657 -3.7247 -28.8232 2.83362 -1.40521 26.98508 -32.27882 7.59075 89.29033 30.38299 -15.7882 4.37553 56.20354 16.39556 -38.25328 106.3159 -34.53116 -37.77425 -2.5936 8.31077 10.79446 -1.30578 -14.22097 0.67311 -4.35472 -5.72953 0.44653 3.23137 16.8676 -13.13172 12.17098 1.70257 -0.68616
-0.32364 0.57434 -0.20459 237.93816 0 -7.3224 1.05381 4.66926 -3.32166 -28.51161 2.07693 -1.78502 27.52157 -30.17816 7.29138 90.30212 37.71724 1.24584 1.42764 55.92434 16.83962 -38.55772 105.89492 -34.50328 -37.51854 -2.62122 7.95435 10.65284 -0.61752 -14.02455 0.74463 -4.30643 -5.92982 0.69604 3.19089 16.31344 -14.15176 12.3808 2.19726 -0.04447
-0.32458 0.57403 -0.20221 237.71854 0 -7.2609 1.25786 5.12836 -2.96734 -28.24576 1.40693 -2.1206 28.08369 -28.32754 7.4171 91.53051 43.94943 13.82661 -0.86134 55.67023 17.23958 -38.83669 105.4585 -34.46288 -37.29984 -2.64869 7.57004 10.59923 0.13035 -13.73398 0.76422 -4.26961 -6.1088 0.95509 3.18279 15.97886 -15.19425 12.63837 2.55246 0.40073
-0.32549 0.57371 -0.19976 237.45196 0 -7.18968 1.47484 5.61354 -2.58506 -27.95031 0.65693 -2.50716 28.45669 -26.25209 6.91255 92.53431 50.001 31.17416 -3.56102 55.38061 17.72445 -39.08049 105.0846 -34.42962 -37.06106 -2.67559 7.16663 10.53061 0.97853 -13.41732 0.76869 -4.23159 -6.34162 1.09398 3.1213 15.60171 -16.02116 12.90423 3.00492 0.97414
-0.32642 0.57344 -0.19745 237.28977 0 -7.13471 1.65165 6.06243 -2.24055 -27.69765 0.04033 -2.80322 29.2371 -24.54367 7.56435 93.89096 56.97461 40.49797 -5.70958 55.15554 18.04351 -39.41319 104.5841 -34.38833 -36.84795 -2.70344 6.82005 10.44939 1.57507 -13.20673 0.83471 -4.19043 -6.46733 1.49225 3.16144 15.19797 -17.30725 13.12591 3.31175 1.36375
-0.32741 0.57326 -0.19555 237.41984 0 -7.12947 1.72938 6.40219 -2.01647 -27.56943 -0.18387 -2.84424 31.09658 -23.93697 11.66325 96.46105 66.2398 24.70464 -6.00695 55.11918 17.90161 -39.9874 103.7015 -34.31484 -36.7065 -2.7369 6.617 10.37977 1.49242 -13.24106 1.04789 -4.14009 -6.26746 2.59732 3.48207 14.86388 -19.87009 13.25225 3.20551 1.20498
-0.32842 0.57313 -0.19379 237.65217 0 -7.14065 1.7684 6.69956 -1.83517 -27.48987 -0.26589 -2.78955 33.36955 -23.718 16.924 99.36077 76.2684 0.83156 -5.7174 55.14852 17.58935 -40.64531 102.69704 -34.23348 -36.59515 -2.7708 6.46837 10.3037 1.1667 -13.37352 1.31869 -4.08826 -5.96225 3.96039 3.90808 14.51133 -22.88376 13.33726 2.9377 0.84325
-0.32941 0.57299 -0.19197 237.83157 0 -7.14375 1.82569 7.00834 -1.63967 -27.39757 -0.40382 -2.77081 35.47905 -23.33259 21.58477 101.99806 85.69437 -18.52148 -5.72131 55.14616 17.34748 -41.25527 101.77031 -34.1595 -36.48107 -2.80218 6.29241 10.23068 0.97015 -13.45668 1.55988 -4.04121 -5.72064 5.2057 4.2929 14.14522 -25.67766 13.44049 2.70688 0.53922
-0.33043 0.57283 -0.19016 238.04054 0 -7.14972 1.87853 7.35439 -1.41978 -27.26275 -0.58315 -2.78648 37.49417 -22.88964 26.53725 105.10025 96.28629 -41.18544 -5.65503 55.14984 17.13501 -41.91046 100.75124 -34.07132 -36.3212 -2.84276 6.12937 10.15183 0.6895 -13.56654 1.81946 -3.97649 -5.41475 6.45909 4.64871 13.85666 -28.55045 13.54246 2.62696 0.38092
